PathFileType	4	(X/Y/Z)	RBDS012\RBDS012runT35.trc
DataRate	CameraRate	NumFrames	NumMarkers	Units	OrigDataRate	OrigDataStartFrame	OrigNumFrames
150.000000	150.000000	5	33	mm	150.000000	2250	4500
Frame#	Time	L.ASIS			L.Heel.Bottom			L.Heel.Lateral			L.Heel.Top			L.Iliac.Crest			L.MT1			L.MT5			L.PSIS			L.Shank.Bottom.Lateral			L.Shank.Bottom.Medial			L.Shank.Top.Lateral			L.Shank.Top.Medial			L.Thigh.Bottom.Lateral			L.Thigh.Bottom.Medial			L.Thigh.Top.Lateral			L.Thigh.Top.Medial			R.ASIS			R.ASY			R.Heel.Bottom			R.Heel.Lateral			R.Heel.Top			R.Iliac.Crest			R.MT1			R.MT5			R.PSIS			R.Shank.Bottom.Lateral			R.Shank.Bottom.Medial			R.Shank.Top.Lateral			R.Shank.Top.Medial			R.Thigh.Bottom.Lateral			R.Thigh.Bottom.Medial			R.Thigh.Top.Lateral			R.Thigh.Top.Medial			
		X1	Y1	Z1	X2	Y2	Z2	X3	Y3	Z3	X4	Y4	Z4	X5	Y5	Z5	X6	Y6	Z6	X7	Y7	Z7	X8	Y8	Z8	X9	Y9	Z9	X10	Y10	Z10	X11	Y11	Z11	X12	Y12	Z12	X13	Y13	Z13	X14	Y14	Z14	X15	Y15	Z15	X16	Y16	Z16	X17	Y17	Z17	X18	Y18	Z18	X19	Y19	Z19	X20	Y20	Z20	X21	Y21	Z21	X22	Y22	Z22	X23	Y23	Z23	X24	Y24	Z24	X25	Y25	Z25	X26	Y26	Z26	X27	Y27	Z27	X28	Y28	Z28	X29	Y29	Z29	X30	Y30	Z30	X31	Y31	Z31	X32	Y32	Z32	X33	Y33	Z33	

2251	15	2251.072367305912	940.2097799425294	913.7398237974205	1851.812008936254	550.3670789045982	975.5447699533507	1867.717960035043	517.7763266854421	931.6314012548244	1902.172667903572	546.5157072264407	974.8610071731042	2207.149343091342	1019.573683609638	882.6863705787737	1895.467251671497	338.0194510175683	1037.622852134014	1889.509815781908	351.0264006074951	920.3679843189578	2089.876536411468	1006.793685874347	1000.084734492499	2004.883462182023	477.9162378167011	920.3937205833446	2004.756174131064	526.0263074145878	947.7243367579815	2082.154511214129	489.473380936511	902.4067398936784	2083.152466174044	535.659559083202	929.8567373107239	2334.126485125333	594.3026210973063	863.3987687801875	2276.37592441358	562.0238214793952	894.1416219939966	2273.662979785227	686.1983346721913	853.46097155115	2219.61823789342	656.5593416468586	883.4778539433333	2255.52542063511	960.2841665068971	1187.170799564377	2103.758157145028	81.15511750684338	1094.43528451315	1906.423359159585	44.27818011005695	1085.529216012452	1927.917749393676	60.86797496809811	1122.649421926993	1922.972425730425	92.86994133281011	1082.806532137316	2207.168108525785	1022.931186954463	1220.643675634632	2132.01375639469	40.33124484531817	1050.005824090802	2098.146805181705	43.12173895610425	1165.76684235379	2088.430896173208	1010.101267548909	1103.841306302136	2037.260078172927	168.8771046631404	1138.842757782859	2004.252441750403	198.7267254302781	1113.485937664068	2079.71564999316	238.5169507986442	1162.516555510869	2042.371677037822	266.711307912741	1136.580136084799	2215.494137550474	554.4807365157042	1206.374999631209	2154.803929851551	545.3828875476021	1165.50206750594	2184.515513096134	658.8107535899863	1223.690785968842	2127.83077757448	651.1718674382912	1184.868980193526	
2252	15.00666666666667	2250.82588114852	944.1536710220703	913.5427954973684	1861.284686500031	530.9680625900514	978.3070056553561	1879.055533384886	499.6990732577701	934.2631711119787	1911.769394249136	530.6320962086004	977.0504570258256	2207.105273508959	1022.998390679423	882.7886987134203	1919.650575706055	321.9448048719514	1039.302926641463	1911.81069699227	334.9296315654984	922.1534395256862	2089.847405367764	1010.286695275204	1000.282334756689	2018.690048817131	468.6929100860863	922.1386962687716	2015.798654200871	516.5773423710073	949.6865309104762	2095.078940412021	484.9157208959766	903.931780313668	2093.412891757625	530.9193746585254	931.6405702698255	2344.147017898802	604.6647205950185	863.152501368606	2287.345792423973	570.0627862434108	893.2043121312083	2280.400020062165	694.3287150920128	853.1747218548584	2227.162411826877	662.5285274406591	882.521877396195	2255.206588548146	961.580448990847	1187.545024015291	2080.970474738298	81.6033749960977	1094.910979804242	1883.042087790334	48.12043538429762	1085.486534051759	1904.795622278983	64.09293366659284	1122.739016833435	1900.34683020131	96.47120152984434	1083.164500723007	2207.544546912572	1024.139146239144	1220.669149829197	2108.03142361153	40.09917452276473	1049.9241545113	2074.243754919883	43.05013884242953	1165.46615015886	2088.559647873548	1013.243132612351	1104.109748458809	2015.326149592355	171.8625492654787	1139.211087918345	1982.865282674329	202.1313235233874	1113.710860161677	2058.701916263434	240.9131460015069	1162.82778945046	2021.806464156607	269.5791708650746	1136.90872315213	2200.961832280757	555.6742112053568	1206.397862757663	2140.171684061306	548.7837678588201	1165.225929623496	2173.778564919695	661.1246467127613	1223.301752002615	2117.199888372686	655.639495344192	1184.013786221194	
2253	15.01333333333333	2251.030005849749	948.480520020213	913.6016599100629	1871.426565577666	510.1423453488818	981.3523600003468	1890.989571318067	480.4118554389386	937.1084124969756	1921.794859630072	513.4750757382689	979.5217186509707	2207.462270273052	1026.744335767752	882.8764341125108	1944.763600338452	305.4929721847936	1040.987913440822	1934.966961340758	318.4442673815082	923.978831148265	2090.086449245171	1014.227412478928	1000.284498999316	2032.596555574917	458.7733790801004	924.0542708606871	2026.811621301292	506.2591741941109	951.8585026591833	2107.777428346831	479.871035191991	905.5816152057259	2103.323797296891	525.5283883185459	933.5843759736973	2353.308401165368	615.4376265005462	862.9775171781234	2297.445533198192	578.7156036698605	892.3063903021568	2286.601484123996	702.9158136007142	852.8639450237135	2234.180905454998	669.1451713325978	881.5464677220036	2255.063185989307	963.2467529958642	1188.180459799055	2058.484793159127	82.1491394035486	1095.544580424794	1859.982465516616	52.89939869376973	1085.483942425704	1882.014875629647	68.05958337848131	1122.908467323843	1878.206264589287	100.9106496432173	1083.689975879965	2208.189577789026	1025.664083380923	1220.614449673165	2084.072562609822	39.97795973086683	1049.870862884	2050.448302404234	43.0111289880218	1165.183990689553	2089.035226145644	1016.627784940663	1104.177926638847	1993.689207969463	175.6089196177436	1139.77748878656	1961.75414750626	206.2105891433353	1114.060339240041	2037.888511367053	244.1454604495095	1163.309222429245	2001.399299403348	273.1946830367939	1137.329084520647	2186.301508257578	557.7547912620797	1206.363390288022	2125.604713810198	553.2066345487389	1164.745660136224	2163.143611301479	664.1884012094163	1222.830186454081	2106.836499445896	660.9872010187075	1182.94209821023	
2254	15.02	2251.669551383118	953.1788726944598	913.9281598159598	1882.492768754059	488.0598229789238	984.6152686047742	1903.756707614406	460.0576344361216	940.1154566894052	1932.477169043212	495.1513716805254	982.2356888083656	2208.142890068468	1030.835660018467	882.9309871031819	1970.828484872309	288.8856199935275	1042.642259301595	1959.048986435866	301.7532626982247	925.8107606837112	2090.59343933978	1018.593106681071	1000.132881203686	2046.742425467748	448.1872790418674	926.1043899983297	2037.981086916914	495.0838411054555	954.1909968517972	2120.359501601291	474.2777907080669	907.334005231988	2113.043089008748	519.406887226088	935.6560395612684	2361.615049052391	626.4329262451344	862.8615318733554	2306.64950419157	587.8056525562948	891.4283141311495	2292.285762311159	711.8150385872927	852.5083190856186	2240.667155931691	676.2781214825055	880.5343170238978	2255.130505678295	965.3089809260111	1189.017259517634	2036.377411651348	82.7500336352096	1096.346337504481	1837.372928148208	58.67610706306712	1085.570859279788	1859.70191632357	72.80900270421944	1123.199821041648	1856.698903837068	106.2207848619144	1084.424168783427	2209.180781129631	1027.633147306997	1220.437498899925	2060.190050608373	39.96034627705647	1049.852201478461	2026.834912638316	42.98619437763029	1164.940238984844	2089.873546076135	1020.240307029145	1104.089097451963	1972.480794991779	180.1074124112767	1140.57751356632	1941.044712380596	210.9409545895073	1114.555738355267	2017.387249970421	248.2223790323165	1163.982849730677	1981.258742005874	277.5520229805103	1137.845808431233	2171.660875772381	560.7510940487863	1206.287547968922	2111.231582595111	558.6512460997021	1164.124386814299	2152.75262471839	668.0109222525905	1222.307635371475	2096.85821171471	667.1897700057726	1181.737227952	
2255	15.02666666666667	2252.709661400353	958.235547782581	914.508545594933	1894.696169974008	464.8973258134629	988.0325918511875	1917.554199450341	438.7816280011762	943.2344053767506	1944.013000614392	475.7769460614257	985.1459044009493	2209.078919583073	1035.298207382276	882.9375991863885	1997.852641087329	272.3241540478093	1044.232688820479	1984.097494854346	285.0154296290174	927.6181132833608	2091.365035598686	1023.342968662995	999.87473057939	2061.248597768783	436.9751695422394	928.2491600429667	2049.473535430856	483.0780413697607	956.6350614530224	2132.924671550668	468.0924995654761	909.1657361396288	2122.717713907899	512.496955507318	937.8256905407421	2369.099390919981	637.4717805489655	862.7969611232076	2314.963594324103	597.157826821439	890.5581298244475	2297.487753157237	720.8875932533648	852.0991425274117	2246.632942727197	683.7949196877292	879.4803629226764	2255.444630776165	967.7757553968612	1189.971431181093	2014.729011524029	83.36529096444227	1097.318762117508	1815.355273245897	65.48996749036677	1085.807551977755	1837.997167407171	78.37036081330692	1123.660033094546	1835.982171774128	112.4100580363185	1085.404942019897	2210.595482847115	1030.140882088521	1220.101137811293	2036.450209693564	40.03852920027507	1049.874348341951	2003.484254593485	42.96326978554087	1164.75922474938	2091.078915712481	1024.063414266553	1103.895206428712	1951.84024364989	185.3202602015918	1141.639274970394	1920.870000056329	216.2701116143603	1115.213300017817	1997.31213300059	253.1250449787175	1164.862551442815	1961.498909409789	282.6173976814551	1138.458304647334	2157.182840088597	564.6627911856071	1206.183613577	2097.172344226199	565.085280660662	1163.421846710151	2142.72784376431	672.5753922930729	1221.765085897857	2087.360926143745	674.1917410192784	1180.481080189312	
